<mxfile host="app.diagrams.net" modified="2024-02-14T06:58:45.213Z" agent="Mozilla/5.0 (Macintosh; Intel Mac OS X 10_15_7) AppleWebKit/537.36 (KHTML, like Gecko) Chrome/121.0.0.0 Safari/537.36" etag="MM6NxFA9Eu4dpHTZOXDw" version="23.1.2" type="device">
  <diagram name="Page-1" id="_zKgSFmIjgZiKNN-dnrv">
    <mxGraphModel dx="984" dy="553" grid="1" gridSize="10" guides="1" tooltips="1" connect="1" arrows="1" fold="1" page="1" pageScale="1" pageWidth="827" pageHeight="1169" math="0" shadow="0">
      <root>
        <mxCell id="0" />
        <mxCell id="1" parent="0" />
        <mxCell id="hzC5k-ZcbGS6RotcFQh4-2" value="Transaction Data" style="image;aspect=fixed;perimeter=ellipsePerimeter;html=1;align=center;shadow=0;dashed=0;fontColor=#4277BB;labelBackgroundColor=default;fontSize=12;spacingTop=3;image=img/lib/ibm/blockchain/transaction_manager.svg;imageBorder=none;" vertex="1" parent="1">
          <mxGeometry x="40" y="60" width="40" height="40" as="geometry" />
        </mxCell>
        <mxCell id="hzC5k-ZcbGS6RotcFQh4-7" style="edgeStyle=orthogonalEdgeStyle;rounded=0;orthogonalLoop=1;jettySize=auto;html=1;" edge="1" parent="1" source="hzC5k-ZcbGS6RotcFQh4-3" target="hzC5k-ZcbGS6RotcFQh4-6">
          <mxGeometry relative="1" as="geometry" />
        </mxCell>
        <mxCell id="hzC5k-ZcbGS6RotcFQh4-11" value="batch processing" style="edgeLabel;html=1;align=center;verticalAlign=middle;resizable=0;points=[];" vertex="1" connectable="0" parent="hzC5k-ZcbGS6RotcFQh4-7">
          <mxGeometry x="-0.2824" y="-4" relative="1" as="geometry">
            <mxPoint x="20" as="offset" />
          </mxGeometry>
        </mxCell>
        <mxCell id="hzC5k-ZcbGS6RotcFQh4-8" style="edgeStyle=orthogonalEdgeStyle;rounded=0;orthogonalLoop=1;jettySize=auto;html=1;" edge="1" parent="1" source="hzC5k-ZcbGS6RotcFQh4-4" target="hzC5k-ZcbGS6RotcFQh4-6">
          <mxGeometry relative="1" as="geometry" />
        </mxCell>
        <mxCell id="hzC5k-ZcbGS6RotcFQh4-6" value="Azure Stream Analytics" style="image;aspect=fixed;html=1;points=[];align=center;fontSize=12;image=img/lib/azure2/analytics/Stream_Analytics_Jobs.svg;imageBorder=none;strokeWidth=1;perimeterSpacing=4;" vertex="1" parent="1">
          <mxGeometry x="190" y="210" width="68" height="57.99999999999999" as="geometry" />
        </mxCell>
        <mxCell id="hzC5k-ZcbGS6RotcFQh4-10" style="edgeStyle=orthogonalEdgeStyle;rounded=0;orthogonalLoop=1;jettySize=auto;html=1;entryX=0;entryY=0.5;entryDx=0;entryDy=0;entryPerimeter=0;" edge="1" parent="1" source="hzC5k-ZcbGS6RotcFQh4-5" target="hzC5k-ZcbGS6RotcFQh4-6">
          <mxGeometry relative="1" as="geometry">
            <Array as="points">
              <mxPoint x="140" y="365" />
              <mxPoint x="140" y="239" />
            </Array>
          </mxGeometry>
        </mxCell>
        <mxCell id="hzC5k-ZcbGS6RotcFQh4-12" value="batch processing" style="edgeLabel;html=1;align=center;verticalAlign=middle;resizable=0;points=[];rotation=-90;" vertex="1" connectable="0" parent="hzC5k-ZcbGS6RotcFQh4-10">
          <mxGeometry x="-0.0617" y="-1" relative="1" as="geometry">
            <mxPoint y="6" as="offset" />
          </mxGeometry>
        </mxCell>
        <mxCell id="hzC5k-ZcbGS6RotcFQh4-19" style="edgeStyle=orthogonalEdgeStyle;rounded=0;orthogonalLoop=1;jettySize=auto;html=1;" edge="1" parent="1" source="hzC5k-ZcbGS6RotcFQh4-14" target="hzC5k-ZcbGS6RotcFQh4-18">
          <mxGeometry relative="1" as="geometry" />
        </mxCell>
        <mxCell id="hzC5k-ZcbGS6RotcFQh4-14" value="&lt;b&gt;Azure Stream Analytics&lt;br&gt;&lt;/b&gt;&lt;br&gt;Performing data cleansing, &lt;br&gt;Transformation, &lt;br&gt;and Enrichment.&lt;br&gt;&lt;br&gt;Also,&amp;nbsp;identify trends&lt;br&gt;&amp;nbsp;and patterns indicative &lt;br&gt;of fraudulent activities." style="image;aspect=fixed;html=1;points=[];align=center;fontSize=12;image=img/lib/azure2/analytics/Azure_Synapse_Analytics.svg;perimeterSpacing=2;" vertex="1" parent="1">
          <mxGeometry x="353.5" y="200" width="60" height="69" as="geometry" />
        </mxCell>
        <mxCell id="hzC5k-ZcbGS6RotcFQh4-17" style="edgeStyle=orthogonalEdgeStyle;rounded=0;orthogonalLoop=1;jettySize=auto;html=1;entryX=0.008;entryY=0.572;entryDx=0;entryDy=0;entryPerimeter=0;" edge="1" parent="1" source="hzC5k-ZcbGS6RotcFQh4-6" target="hzC5k-ZcbGS6RotcFQh4-14">
          <mxGeometry relative="1" as="geometry" />
        </mxCell>
        <mxCell id="hzC5k-ZcbGS6RotcFQh4-18" value="&lt;b&gt;Power BI&lt;br&gt;&lt;/b&gt;&lt;br&gt;Power BI dashboards visualize &lt;br&gt;fraud detection metrics, &lt;br&gt;including transaction volumes, &lt;br&gt;fraud rates, and detection accuracy" style="image;aspect=fixed;html=1;points=[];align=center;fontSize=12;image=img/lib/azure2/analytics/Power_BI_Embedded.svg;perimeterSpacing=2;" vertex="1" parent="1">
          <mxGeometry x="550" y="200" width="51" height="68" as="geometry" />
        </mxCell>
        <mxCell id="hzC5k-ZcbGS6RotcFQh4-21" value="" style="group" vertex="1" connectable="0" parent="1">
          <mxGeometry x="14.999999999999993" y="140" width="95" height="277.5" as="geometry" />
        </mxCell>
        <mxCell id="hzC5k-ZcbGS6RotcFQh4-3" value="Online Banking" style="shape=image;html=1;verticalAlign=top;verticalLabelPosition=bottom;labelBackgroundColor=#ffffff;imageAspect=0;aspect=fixed;image=https://cdn3.iconfinder.com/data/icons/finance-152/64/42-128.png" vertex="1" parent="hzC5k-ZcbGS6RotcFQh4-21">
          <mxGeometry x="20.000000000000007" y="10" width="50" height="50" as="geometry" />
        </mxCell>
        <mxCell id="hzC5k-ZcbGS6RotcFQh4-4" value="Bank" style="outlineConnect=0;dashed=0;verticalLabelPosition=bottom;verticalAlign=top;align=center;html=1;shape=mxgraph.aws3.bank;fillColor=#5294CF;gradientColor=none;" vertex="1" parent="hzC5k-ZcbGS6RotcFQh4-21">
          <mxGeometry x="15.13000000000001" y="100" width="59.75" height="60" as="geometry" />
        </mxCell>
        <mxCell id="hzC5k-ZcbGS6RotcFQh4-5" value="ATM" style="shape=image;html=1;verticalAlign=top;verticalLabelPosition=bottom;labelBackgroundColor=#ffffff;imageAspect=0;aspect=fixed;image=https://cdn3.iconfinder.com/data/icons/finance-152/64/22-128.png" vertex="1" parent="hzC5k-ZcbGS6RotcFQh4-21">
          <mxGeometry x="20.000000000000007" y="200" width="50" height="50" as="geometry" />
        </mxCell>
        <mxCell id="hzC5k-ZcbGS6RotcFQh4-20" value="" style="rounded=1;whiteSpace=wrap;html=1;fillColor=none;strokeWidth=5;rotation=90;" vertex="1" parent="hzC5k-ZcbGS6RotcFQh4-21">
          <mxGeometry x="-91.25" y="91.25" width="277.5" height="95" as="geometry" />
        </mxCell>
      </root>
    </mxGraphModel>
  </diagram>
</mxfile>
